<svg width="79.000000" height="79.000000" viewBox="0 0 79 79" fill="none" xmlns="http://www.w3.org/2000/svg" xmlns:xlink="http://www.w3.org/1999/xlink">
	<desc>
			Created with Pixso.
	</desc>
	<defs/>
	<path id="Star 2" d="M33.36 20.81L17.37 6.34L23.88 26.9L2.61 23.38L19.2 37.15L-0.6 45.69L20.8 48.3L8.77 66.19L28.18 56.82L27.73 78.37L39 60L50.26 78.37L49.81 56.82L69.23 66.19L57.19 48.3L78.59 45.69L58.79 37.15L75.38 23.38L54.11 26.9L60.62 6.34L44.63 20.81L39 0L33.36 20.81ZM39 11.47L34.98 26.31L23.58 16L28.22 30.66L13.05 28.15L24.88 37.97L10.76 44.05L26.02 45.92L17.44 58.67L31.29 51.99L30.96 67.36L39 54.26L47.03 67.36L46.7 51.99L60.55 58.67L51.97 45.92L67.23 44.05L53.11 37.97L64.94 28.15L49.77 30.66L54.41 16L43.01 26.31L39 11.47Z" fill="#EEDB6D" fill-opacity="1.000000" fill-rule="evenodd"/>
</svg>
